HIERARCHY
ROOT Hips
{
  OFFSET -834.03 94.1132 -237.558
  CHANNELS 6 Xposition Yposition Zposition Zrotation Xrotation Yrotation
  JOINT RightUpLeg
  {
    OFFSET -9.3265 -1.55415 -0.0171091
    CHANNELS 3 Zrotation Xrotation Yrotation
    JOINT RightLeg
    {
      OFFSET -0.125794 -41.9436 0.102806
      CHANNELS 3 Zrotation Xrotation Yrotation
      JOINT RightFoot
      {
        OFFSET 0.138078 -41.9242 -0.0943422
        CHANNELS 3 Zrotation Xrotation Yrotation
        End Site
        {
          OFFSET 0 -7.69 17.5
        }
      }
    }
  }
  JOINT LeftUpLeg
  {
    OFFSET 9.28582 -1.60229 0.0178458
    CHANNELS 3 Zrotation Xrotation Yrotation
    JOINT LeftLeg
    {
      OFFSET 0.0590337 -41.8766 -0.103282
      CHANNELS 3 Zrotation Xrotation Yrotation
      JOINT LeftFoot
      {
        OFFSET 0.248671 -41.7745 -0.0391384
        CHANNELS 3 Zrotation Xrotation Yrotation
        End Site
        {
          OFFSET 0 -7.69 17.5
        }
      }
    }
  }
  JOINT Spine
  {
    OFFSET -0.044887 14.3054 -0.0836407
    CHANNELS 3 Zrotation Xrotation Yrotation
    JOINT Spine1
    {
      OFFSET 0.0890578 9.73457 0.0464976
      CHANNELS 3 Zrotation Xrotation Yrotation
      JOINT Spine2
      {
        OFFSET 0.0386025 10.1212 0.0337459
        CHANNELS 3 Zrotation Xrotation Yrotation
        JOINT Spine3
        {
          OFFSET -0.00444228 9.71785 0.0146977
          CHANNELS 3 Zrotation Xrotation Yrotation
          JOINT Neck
          {
            OFFSET -0.081693 10.3751 -0.0991895
            CHANNELS 3 Zrotation Xrotation Yrotation
            JOINT Head
            {
              OFFSET -0.100406 9.44362 -0.10879
              CHANNELS 3 Zrotation Xrotation Yrotation
              End Site
              {
                OFFSET 0 15.95 0
              }
            }
          }
          JOINT RightShoulder
          {
            OFFSET -3.20936 6.89625 0.0391654
            CHANNELS 3 Zrotation Xrotation Yrotation
            JOINT RightArm
            {
              OFFSET -12.8143 -0.0185143 0.0368862
              CHANNELS 3 Zrotation Xrotation Yrotation
              JOINT RightForeArm
              {
                OFFSET -26.448 -0.0861582 0.150351
                CHANNELS 3 Zrotation Xrotation Yrotation
                JOINT RightHand
                {
                  OFFSET -26.1022 0.0738218 0.00174904
                  CHANNELS 3 Zrotation Xrotation Yrotation
                  JOINT RightHandThumb1
                  {
                    OFFSET -2.48905 0.190105 3.12053
                    CHANNELS 3 Zrotation Xrotation Yrotation
                    JOINT RightHandThumb2
                    {
                      OFFSET -3.68274 0 0
                      CHANNELS 3 Zrotation Xrotation Yrotation
                      JOINT RightHandThumb3
                      {
                        OFFSET -2.55832 0 0
                        CHANNELS 3 Zrotation Xrotation Yrotation
                        End Site
                        {
                          OFFSET -2.194 0 0
                        }
                      }
                    }
                  }
                  JOINT RightInHandIndex
                  {
                    OFFSET -3.22368 0.508421 1.97842
                    CHANNELS 3 Zrotation Xrotation Yrotation
                    JOINT RightHandIndex1
                    {
                      OFFSET -5.21684 -0.091368 0.999158
                      CHANNELS 3 Zrotation Xrotation Yrotation
                      JOINT RightHandIndex2
                      {
                        OFFSET -3.61937 0 0
                        CHANNELS 3 Zrotation Xrotation Yrotation
                        JOINT RightHandIndex3
                        {
                          OFFSET -2.0521 0 0
                          CHANNELS 3 Zrotation Xrotation Yrotation
                          End Site
                          {
                            OFFSET -1.805 0 0
                          }
                        }
                      }
                    }
                  }
                  JOINT RightInHandMiddle
                  {
                    OFFSET -3.38211 0.517263 0.756737
                    CHANNELS 3 Zrotation Xrotation Yrotation
                    JOINT RightHandMiddle1
                    {
                      OFFSET -5.17411 -0.084 0.313895
                      CHANNELS 3 Zrotation Xrotation Yrotation
                      JOINT RightHandMiddle2
                      {
                        OFFSET -3.94947 0 0
                        CHANNELS 3 Zrotation Xrotation Yrotation
                        JOINT RightHandMiddle3
                        {
                          OFFSET -2.47579 0 0
                          CHANNELS 3 Zrotation Xrotation Yrotation
                          End Site
                          {
                            OFFSET -1.975 0 0
                          }
                        }
                      }
                    }
                  }
                  JOINT RightInHandRing
                  {
                    OFFSET -3.36516 0.537895 -0.128947
                    CHANNELS 3 Zrotation Xrotation Yrotation
                    JOINT RightHandRing1
                    {
                      OFFSET -4.63474 -0.022105 -0.478947
                      CHANNELS 3 Zrotation Xrotation Yrotation
                      JOINT RightHandRing2
                      {
                        OFFSET -3.44238 0 0
                        CHANNELS 3 Zrotation Xrotation Yrotation
                        JOINT RightHandRing3
                        {
                          OFFSET -2.3881 0 0
                          CHANNELS 3 Zrotation Xrotation Yrotation
                          End Site
                          {
                            OFFSET -1.857 0 0
                          }
                        }
                      }
                    }
                  }
                  JOINT RightInHandPinky
                  {
                    OFFSET -3.16105 0.469368 -1.20179
                    CHANNELS 3 Zrotation Xrotation Yrotation
                    JOINT RightHandPinky1
                    {
                      OFFSET -4.14105 -0.022105 -1.09053
                      CHANNELS 3 Zrotation Xrotation Yrotation
                      JOINT RightHandPinky2
                      {
                        OFFSET -2.75653 0 0
                        CHANNELS 3 Zrotation Xrotation Yrotation
                        JOINT RightHandPinky3
                        {
                          OFFSET -1.74189 0 0
                          CHANNELS 3 Zrotation Xrotation Yrotation
                          End Site
                          {
                            OFFSET -1.645 0 0
                          }
                        }
                      }
                    }
                  }
                }
              }
            }
          }
          JOINT LeftShoulder
          {
            OFFSET 3.12525 6.87903 -0.0170199
            CHANNELS 3 Zrotation Xrotation Yrotation
            JOINT LeftArm
            {
              OFFSET 12.7772 -0.0469204 -0.027264
              CHANNELS 3 Zrotation Xrotation Yrotation
              JOINT LeftForeArm
              {
                OFFSET 26.4794 -0.0637346 -0.0610438
                CHANNELS 3 Zrotation Xrotation Yrotation
                JOINT LeftHand
                {
                  OFFSET 26.0019 0.0490151 0.0404079
                  CHANNELS 3 Zrotation Xrotation Yrotation
                  JOINT LeftHandThumb1
                  {
                    OFFSET 2.48905 0.190105 3.12053
                    CHANNELS 3 Zrotation Xrotation Yrotation
                    JOINT LeftHandThumb2
                    {
                      OFFSET 3.68274 0 0
                      CHANNELS 3 Zrotation Xrotation Yrotation
                      JOINT LeftHandThumb3
                      {
                        OFFSET 2.55832 0 0
                        CHANNELS 3 Zrotation Xrotation Yrotation
                        End Site
                        {
                          OFFSET 2.194 0 0
                        }
                      }
                    }
                  }
                  JOINT LeftInHandIndex
                  {
                    OFFSET 3.22368 0.508421 1.97842
                    CHANNELS 3 Zrotation Xrotation Yrotation
                    JOINT LeftHandIndex1
                    {
                      OFFSET 5.21684 -0.091368 0.999158
                      CHANNELS 3 Zrotation Xrotation Yrotation
                      JOINT LeftHandIndex2
                      {
                        OFFSET 3.61937 0 0
                        CHANNELS 3 Zrotation Xrotation Yrotation
                        JOINT LeftHandIndex3
                        {
                          OFFSET 2.0521 0 0
                          CHANNELS 3 Zrotation Xrotation Yrotation
                          End Site
                          {
                            OFFSET 1.805 0 0
                          }
                        }
                      }
                    }
                  }
                  JOINT LeftInHandMiddle
                  {
                    OFFSET 3.38211 0.517263 0.756737
                    CHANNELS 3 Zrotation Xrotation Yrotation
                    JOINT LeftHandMiddle1
                    {
                      OFFSET 5.17411 -0.084 0.313895
                      CHANNELS 3 Zrotation Xrotation Yrotation
                      JOINT LeftHandMiddle2
                      {
                        OFFSET 3.94947 0 0
                        CHANNELS 3 Zrotation Xrotation Yrotation
                        JOINT LeftHandMiddle3
                        {
                          OFFSET 2.47579 0 0
                          CHANNELS 3 Zrotation Xrotation Yrotation
                          End Site
                          {
                            OFFSET 1.975 0 0
                          }
                        }
                      }
                    }
                  }
                  JOINT LeftInHandRing
                  {
                    OFFSET 3.36516 0.537895 -0.128947
                    CHANNELS 3 Zrotation Xrotation Yrotation
                    JOINT LeftHandRing1
                    {
                      OFFSET 4.63474 -0.022105 -0.478947
                      CHANNELS 3 Zrotation Xrotation Yrotation
                      JOINT LeftHandRing2
                      {
                        OFFSET 3.44238 0 0
                        CHANNELS 3 Zrotation Xrotation Yrotation
                        JOINT LeftHandRing3
                        {
                          OFFSET 2.3881 0 0
                          CHANNELS 3 Zrotation Xrotation Yrotation
                          End Site
                          {
                            OFFSET 1.857 0 0
                          }
                        }
                      }
                    }
                  }
                  JOINT LeftInHandPinky
                  {
                    OFFSET 3.16105 0.469368 -1.20179
                    CHANNELS 3 Zrotation Xrotation Yrotation
                    JOINT LeftHandPinky1
                    {
                      OFFSET 4.14105 -0.022105 -1.09053
                      CHANNELS 3 Zrotation Xrotation Yrotation
                      JOINT LeftHandPinky2
                      {
                        OFFSET 2.75653 0 0
                        CHANNELS 3 Zrotation Xrotation Yrotation
                        JOINT LeftHandPinky3
                        {
                          OFFSET 1.74189 0 0
                          CHANNELS 3 Zrotation Xrotation Yrotation
                          End Site
                          {
                            OFFSET 1.645 0 0
                          }
                        }
                      }
                    }
                  }
                }
              }
            }
          }
        }
      }
    }
  }
}
MOTION
Frames:	5
Frame Time:	0.00833333
-831.873 91.0645 -259.811 3.89334 -3.07568 -147.064 -17.5715 -13.9482 6.09249 9.59229 8.21909 -14.3561 11.9026 -2.02548 -10.8165 11.8118 -24.5853 -15.5468 -9.37688 24.8724 25.2226 -7.82682 -6.2145 9.32 7.84193 12.3623 -18.4341 1.5841 3.51837 -4.34521 2.68811 5.78824 -6.92967 -0.228994 0.531586 0.296467 -0.229345 0.530461 0.295489 -4.60617 9.70162 5.48183 -0.184015 -11.3983 22.1714 45.0294 50.4037 45.5686 60.3381 -63.4631 56.9526 19.1285 52.4086 -42.5779 28.184 10.7294 19.1592 -4.35126e-15 -6.36111e-15 -10 9.12804e-15 -3.18055e-15 -10 -3.18055e-15 0 -0 19.9818 0.871897 2.3964 24 -4.77083e-15 1.43125e-14 20 1.98785e-15 1.59028e-14 -3.18055e-15 0 -0 20 4.77083e-15 6.36111e-15 24 0 1.27222e-14 20 -7.95139e-16 9.54166e-15 -3.18055e-15 0 -0 19.9748 -1.02565 -2.81938 24 1.59028e-15 9.54166e-15 20 3.18055e-15 1.27222e-14 -3.18055e-15 0 -0 19.7815 -3.00948 -8.30515 24 -9.54166e-15 1.90833e-14 20 0 1.11319e-14 -8.28786 -7.99628 17.0146 -71.0854 45.0611 -28.9976 -51.7187 -28.968 -41.4513 24.3792 -24.404 7.80532 -28.184 10.7294 -19.1592 2.80409e-16 -1.59028e-15 10 -5.60818e-16 3.18055e-15 10 -3.18055e-15 3.18055e-15 -0 -19.9818 0.871897 -2.3964 -24 0 -3.18055e-15 -20 1.59028e-15 -3.18055e-15 -3.18055e-15 3.18055e-15 -0 -20 0 -3.18055e-15 -24 -3.18055e-15 -3.18055e-15 -20 -3.18055e-15 3.18055e-15 -3.18055e-15 3.18055e-15 -0 -19.9748 -1.02565 2.81938 -24 0 -3.18055e-15 -20 -1.59028e-15 -0 -3.18055e-15 3.18055e-15 -0 -19.7815 -3.00948 8.30515 -24 0 3.18055e-15 -20 0 3.18055e-15 
-831.96 91.063 -259.709 3.94533 -3.15591 -147.206 -17.5864 -13.956 6.03224 9.42345 8.01458 -14.3296 12.0627 -1.8462 -10.6597 11.8287 -24.7165 -15.6513 -9.606 24.9786 25.3818 -7.74642 -6.3497 9.48515 7.84465 12.3392 -18.3643 1.58681 3.5125 -4.32751 2.69239 5.78008 -6.90245 -0.228118 0.530992 0.293934 -0.228469 0.530314 0.29295 -4.58928 9.70398 5.43458 -0.196645 -11.4156 22.1791 45.2717 50.3322 45.4135 59.9549 -63.3911 56.5993 19.008 52.3888 -42.4497 28.184 10.7294 19.1592 2.6688e-15 -3.18055e-15 -10 0 0 -10 -1.59028e-15 -6.36111e-15 3.18055e-15 19.9818 0.871897 2.3964 24 0 1.59028e-15 20 -3.97569e-16 6.36111e-15 -1.59028e-15 -6.36111e-15 3.18055e-15 20 -7.95139e-15 1.43125e-14 24 0 9.54166e-15 20 -1.98785e-15 -0 -1.59028e-15 -6.36111e-15 3.18055e-15 19.9748 -1.02565 -2.81938 24 1.59028e-15 3.18055e-15 20 -1.19271e-15 -0 -1.59028e-15 -6.36111e-15 3.18055e-15 19.7815 -3.00948 -8.30515 24 -5.56597e-15 1.43125e-14 20 1.59028e-15 -3.18055e-15 -8.30563 -7.99128 17.0314 -71.0646 45.0372 -29.066 -51.5694 -28.917 -41.3463 24.3734 -24.4056 7.88586 -28.184 10.7294 -19.1592 -2.45604e-15 4.77083e-15 10 5.40525e-15 -3.18055e-15 10 -7.95139e-16 -3.18055e-15 -6.36111e-15 -19.9818 0.871897 -2.3964 -24 3.18055e-15 -3.18055e-15 -20 3.18055e-15 -3.18055e-15 -7.95139e-16 -3.18055e-15 -6.36111e-15 -20 3.18055e-15 -1.27222e-14 -24 0 -6.36111e-15 -20 8.74653e-15 3.18055e-15 -7.95139e-16 -3.18055e-15 -6.36111e-15 -19.9748 -1.02565 2.81938 -24 3.18055e-15 -9.54166e-15 -20 -3.18055e-15 -0 -7.95139e-16 -3.18055e-15 -6.36111e-15 -19.7815 -3.00948 8.30515 -24 -6.36111e-15 -6.36111e-15 -20 0 -0 
-832.045 91.0628 -259.619 3.98551 -3.22611 -147.32 -17.5864 -13.9498 5.94497 9.23931 7.82422 -14.3118 12.2133 -1.67038 -10.4887 11.8111 -24.8527 -15.7923 -9.83121 25.1014 25.5296 -7.64823 -6.49261 9.67048 7.84604 12.3241 -18.3184 1.5885 3.50884 -4.31599 2.69507 5.77513 -6.88483 -0.226967 0.530087 0.291346 -0.22732 0.530021 0.290363 -4.5611 9.69358 5.38624 -0.20677 -11.4485 22.2148 45.5206 50.2763 45.2414 59.6785 -63.3367 56.3532 18.9211 52.3812 -42.3752 28.184 10.7294 19.1592 -9.68886e-15 0 -10 5.61801e-15 -4.77083e-15 -10 -6.36111e-15 0 -0 19.9818 0.871897 2.3964 24 0 3.18055e-15 20 -1.98785e-15 3.18055e-15 -6.36111e-15 0 -0 20 -3.18055e-15 3.18055e-15 24 -1.59028e-15 -4.77083e-15 20 1.98785e-15 3.18055e-15 -6.36111e-15 0 -0 19.9748 -1.02565 -2.81938 24 1.59028e-15 -0 20 -1.19271e-15 -9.54166e-15 -6.36111e-15 0 -0 19.7815 -3.00948 -8.30515 24 -4.77083e-15 -1.59028e-15 20 3.97569e-16 -6.36111e-15 -8.32901 -7.99174 17.047 -71.025 44.9534 -29.0978 -51.4382 -28.7995 -41.2121 24.3812 -24.4168 7.94782 -28.184 10.7294 -19.1592 8.41226e-16 -4.77083e-15 10 -5.89842e-15 -3.18055e-15 10 7.15625e-15 3.18055e-15 -3.18055e-15 -19.9818 0.871897 -2.3964 -24 3.18055e-15 6.36111e-15 -20 -1.59028e-15 3.18055e-15 7.15625e-15 3.18055e-15 -3.18055e-15 -20 0 -0 -24 3.18055e-15 9.54166e-15 -20 1.59028e-15 -3.18055e-15 7.15625e-15 3.18055e-15 -3.18055e-15 -19.9748 -1.02565 2.81938 -24 -3.18055e-15 6.36111e-15 -20 0 6.36111e-15 7.15625e-15 3.18055e-15 -3.18055e-15 -19.7815 -3.00948 8.30515 -24 3.18055e-15 -6.36111e-15 -20 0 -6.36111e-15 
-832.127 91.0628 -259.541 4.0135 -3.28567 -147.408 -17.5708 -13.929 5.83037 9.03875 7.64858 -14.3041 12.3547 -1.49765 -10.302 11.7537 -24.9927 -15.9677 -10.047 25.2423 25.66 -7.53105 -6.64408 9.87747 7.84602 12.3174 -18.2967 1.58913 3.50747 -4.31074 2.69613 5.77354 -6.87695 -0.225035 0.528955 0.288705 -0.225385 0.529608 0.287727 -4.5215 9.67033 5.33683 -0.21454 -11.4976 22.2795 45.7779 50.2363 45.0508 59.5139 -63.3013 56.2183 18.8678 52.3878 -42.3559 28.184 10.7294 19.1592 4.35126e-15 6.36111e-15 -10 8.41226e-16 4.77083e-15 -10 -1.59028e-15 -3.18055e-15 1.59028e-15 19.9818 0.871897 2.3964 24 -7.95139e-15 9.54166e-15 20 4.77083e-15 9.54166e-15 -1.59028e-15 -3.18055e-15 1.59028e-15 20 -1.59028e-15 -1.59028e-15 24 0 -6.36111e-15 20 -1.59028e-15 -9.54166e-15 -1.59028e-15 -3.18055e-15 1.59028e-15 19.9748 -1.02565 -2.81938 24 -7.95139e-15 -3.18055e-15 20 1.19271e-15 3.18055e-15 -1.59028e-15 -3.18055e-15 1.59028e-15 19.7815 -3.00948 -8.30515 24 -7.95139e-16 -0 20 -3.18055e-15 -6.36111e-15 -8.35835 -7.99758 17.0611 -70.965 44.8072 -29.092 -51.3279 -28.6127 -41.0495 24.4023 -24.4373 7.99014 -28.184 10.7294 -19.1592 4.28361e-15 3.18055e-15 10 6.45924e-15 0 10 3.18055e-15 0 -0 -19.9818 0.871897 -2.3964 -24 0 3.18055e-15 -20 7.15625e-15 -0 3.18055e-15 0 -0 -20 -6.36111e-15 9.54166e-15 -24 -3.18055e-15 9.54166e-15 -20 2.38542e-15 -0 3.18055e-15 0 -0 -19.9748 -1.02565 2.81938 -24 -6.36111e-15 -6.36111e-15 -20 1.59028e-15 -6.36111e-15 3.18055e-15 0 -0 -19.7815 -3.00948 8.30515 -24 3.18055e-15 -0 -20 -4.77083e-15 9.54166e-15 
-832.199 91.0629 -259.474 4.03657 -3.33913 -147.478 -17.5491 -13.892 5.70848 8.84723 7.47371 -14.2776 12.4802 -1.33966 -10.14 11.7186 -25.1192 -16.1413 -10.2711 25.3525 25.8064 -7.42121 -6.77293 10.0535 7.84248 12.3182 -18.2885 1.58833 3.5068 -4.30909 2.69483 5.77275 -6.87474 -0.222481 0.527683 0.28591 -0.222827 0.529101 0.284945 -4.46959 9.63847 5.28462 -0.209566 -11.5492 22.3523 45.9622 50.2192 44.9074 59.4598 -63.2877 56.191 18.8357 52.3899 -42.3609 28.184 10.7294 19.1592 3.79044e-15 3.18055e-15 -10 1.37597e-14 4.77083e-15 -10 3.18055e-15 0 7.95139e-16 19.9818 0.871897 2.3964 24 0 7.95139e-15 20 -1.59028e-15 9.54166e-15 3.18055e-15 0 7.95139e-16 20 3.18055e-15 4.77083e-15 24 0 1.74931e-14 20 4.37326e-15 6.36111e-15 3.18055e-15 0 7.95139e-16 19.9748 -1.02565 -2.81938 24 3.18055e-15 7.95139e-15 20 -3.97569e-16 1.27222e-14 3.18055e-15 0 7.95139e-16 19.7815 -3.00948 -8.30515 24 -1.59028e-15 1.43125e-14 20 3.97569e-16 6.36111e-15 -8.38142 -8.01066 17.0799 -70.9421 44.6408 -29.0585 -51.1803 -28.3976 -40.8485 24.4533 -24.4708 8.03642 -28.184 10.7294 -19.1592 4.07085e-15 -4.77083e-15 10 2.17563e-15 -3.18055e-15 10 -8.82781e-32 3.18055e-15 1.59028e-15 -19.9818 0.871897 -2.3964 -24 -3.18055e-15 -3.18055e-15 -20 0 9.54166e-15 -8.82781e-32 3.18055e-15 1.59028e-15 -20 6.36111e-15 3.18055e-15 -24 0 1.27222e-14 -20 2.38542e-15 -1.90833e-14 -8.82781e-32 3.18055e-15 1.59028e-15 -19.9748 -1.02565 2.81938 -24 -3.18055e-15 1.59028e-14 -20 6.36111e-15 -6.36111e-15 -8.82781e-32 3.18055e-15 1.59028e-15 -19.7815 -3.00948 8.30515 -24 3.18055e-15 -3.18055e-15 -20 6.36111e-15 1.27222e-14 
